<?xml version="1.0" encoding="utf-8"?>
<!-- Uploaded to: SVG Repo, www.svgrepo.com, Generator: SVG Repo Mixer Tools -->
<svg fill="#000000" width="12px" height="12px" viewBox="0 0 32 32" version="1.1" xmlns="http://www.w3.org/2000/svg">
<title>alt-share</title>
<path d="M0 24v-9.984q0-2.496 1.76-4.256t4.256-1.76h1.504q-1.536 1.92-2.432 4.256-0.48 0.256-0.8 0.736t-0.288 1.024v9.984q0 0.832 0.576 1.44t1.44 0.576h20q0.8 0 1.408-0.576t0.576-1.44v-4.992l4-3.008v8q0 2.496-1.76 4.256t-4.224 1.76h-20q-2.496 0-4.256-1.76t-1.76-4.256zM8 18.016q0-3.264 1.6-6.016t4.384-4.384 6.016-1.6v-2.016q0-0.544 0.288-1.024t0.832-0.736q0.384-0.224 0.896-0.224 0.64 0 1.184 0.416l8 5.984q0.8 0.608 0.8 1.6 0 1.024-0.8 1.6l-8 5.984q-0.512 0.416-1.184 0.416-0.448 0-0.896-0.192-0.512-0.256-0.832-0.736t-0.288-1.088v-1.984q-3.872 0-6.944 2.208t-4.352 5.792q-0.704-1.952-0.704-4z"></path>
</svg>