<?xml version="1.0" encoding="utf-8"?>
<!-- Uploaded to: SVG Repo, www.svgrepo.com, Generator: SVG Repo Mixer Tools -->
<svg fill="#00008B" width="12px" height="12px" viewBox="0 0 32 32" version="1.1" xmlns="http://www.w3.org/2000/svg">
<title>alt-expand</title>
<path d="M0 29.984v-5.984q0-0.64 0.352-1.152t0.864-0.704 1.12-0.128 1.088 0.544l1.568 1.6 5.6-5.6q0.384-0.352 0.832-0.512t0.864-0.032 0.768 0.32 0.608 0.608 0.32 0.768-0.032 0.864-0.544 0.832l-5.568 5.568 1.568 1.6q0.48 0.48 0.576 1.088t-0.128 1.12-0.736 0.864-1.12 0.352h-5.984q-0.832 0-1.44-0.576t-0.576-1.44zM0 8v-5.984q0-0.832 0.576-1.408t1.44-0.608h5.984q0.672 0 1.152 0.384t0.704 0.864 0.096 1.12-0.544 1.056l-1.568 1.6 5.568 5.536q0.384 0.384 0.544 0.832t0.032 0.864-0.32 0.8-0.608 0.576-0.768 0.352-0.864-0.064-0.832-0.512l-5.6-5.568-1.568 1.568q-0.48 0.48-1.088 0.576t-1.12-0.128-0.864-0.704-0.352-1.152zM18.048 12.256q-0.096-0.384 0.032-0.832t0.512-0.832l5.568-5.6-1.568-1.568q-0.48-0.48-0.544-1.088t0.096-1.12 0.736-0.864 1.12-0.352h6.016q0.8 0 1.408 0.576t0.576 1.408v6.016q0 0.64-0.352 1.12t-0.864 0.704-1.12 0.128-1.056-0.544l-1.6-1.568-5.6 5.568q-0.352 0.384-0.8 0.512t-0.864 0.032-0.8-0.32-0.576-0.576-0.32-0.8zM18.048 20.448q-0.128-0.544 0.032-0.992t0.544-0.832 0.832-0.544 0.992-0.064 0.96 0.544l5.6 5.6 1.6-1.568q0.448-0.48 1.056-0.576t1.12 0.128 0.864 0.704 0.352 1.152v6.016q0 0.832-0.576 1.408t-1.408 0.576h-6.016q-0.64 0-1.152-0.352t-0.704-0.896-0.096-1.12 0.544-1.056l1.568-1.568-5.568-5.6q-0.448-0.416-0.544-0.96z"></path>
</svg>