<?xml version="1.0" encoding="utf-8"?>
<!-- Generator: Adobe Illustrator 16.0.4, SVG Export Plug-In . SVG Version: 6.00 Build 0)  -->
<!DOCTYPE svg PUBLIC "-//W3C//DTD SVG 1.1//EN" "http://www.w3.org/Graphics/SVG/1.1/DTD/svg11.dtd">
<svg version="1.1" id="Layer_1" xmlns="http://www.w3.org/2000/svg" xmlns:xlink="http://www.w3.org/1999/xlink" x="0px" y="0px"
	 width="258.533px" height="55px" viewBox="0 0 258.533 55" enable-background="new 0 0 258.533 55" xml:space="preserve">
<g>
	<path fill="#003056" d="M20.95,23.583c-8.69-5.518-10.77-7.926-11.472-12.03c-0.905-5.287,3.509-9.345,9.219-9.345
		c1.875,0,9.598,0.711,9.773,11.192h2.086V2.518C27.197,1.27,22.335,0,17.52,0C9.115,0,2.283,4.863,2.283,13.988
		c0,7.246,7.072,11.255,13.131,14.825c9.322,5.918,11.028,8.576,11.09,13.043c0,6.643-5.019,10.387-10.712,10.387
		c-2.538,0-4.818-0.775-6.561-2.234c-0.666-0.773,0.338-1.602,0.338-1.602c1.04-1.094,1.637-2.599,1.519-4.225
		c-0.222-3.055-2.883-5.352-5.94-5.129c-3.057,0.222-5.354,2.881-5.131,5.936c0.065,0.874,0.332,1.742,0.742,2.387
		C3.808,52.221,9.673,55,15.791,55c9.014,0,17.579-5.676,17.579-15.467C33.37,31.762,27.449,27.411,20.95,23.583z"/>
</g>
</svg>
