<?xml version="1.0" encoding="utf-8"?>
<!-- Generator: Adobe Illustrator 16.0.4, SVG Export Plug-In . SVG Version: 6.00 Build 0)  -->
<!DOCTYPE svg PUBLIC "-//W3C//DTD SVG 1.1//EN" "http://www.w3.org/Graphics/SVG/1.1/DTD/svg11.dtd">
<svg version="1.1" id="Layer_1" xmlns="http://www.w3.org/2000/svg" xmlns:xlink="http://www.w3.org/1999/xlink" x="0px" y="0px"
	 width="258.533px" height="55px" viewBox="0 0 258.533 55" enable-background="new 0 0 258.533 55" xml:space="preserve">
<g>
	<path fill="#003056" d="M69.292,50.617L69.281,39.92v-4.789c0.006-3.928-0.238-7.641-3.566-10.746
		c-2.24-2.161-4.521-3.083-7.626-3.083c-3.012,0-7.535,1.513-10.396,4.824V0.838h-9.381v2.192c0.032,0.004,3.098-0.497,3.098,2.76
		l0.003,44.813c0,1.411-4.194,2.08-4.224,2.087v1.626h4.034h0.042h6.603h0.041h4.035v-1.626c-0.03-0.007-4.21-0.493-4.21-2.074
		V31.273c0.179-1.059,0.769-2.188,1.371-2.922c2.338-2.672,5.266-3.071,6.801-3.071c1.805,0,3.326,0.647,4.789,2.039
		c2.02,1.877,2.524,4.634,2.524,9.063v14.222c0,1.411-4.195,2.08-4.224,2.087v1.626h4.035h0.041h6.359h0.039h4.036v-1.626
		C73.475,52.685,69.292,52.198,69.292,50.617z"/>
	<path fill="#003056" d="M144.533,50.617V22.085c0-0.043-0.074-0.073-0.083-0.104h-9.331v2.193c0.032,0.003,3.114-0.315,3.114,2.943
		v23.487c0,1.411-4.179,2.08-4.21,2.087v1.626h4.038h0.04h6.604h0.039h4.036v-1.626C148.751,52.685,144.533,52.198,144.533,50.617z"
		/>
	<circle fill="#003056" cx="140.827" cy="11.875" r="3.744"/>
	<path fill="#003056" d="M182.814,48.336c-0.245-0.307-0.434-1.23-0.553-2.624V0.838h-9.381v2.192
		c0.032,0.004,2.969-0.292,3.088,2.761v16.554c-2.43-0.691-5.051-1.042-7.802-1.042c-4.464,0-8.512,1.714-11.392,4.816
		c-3.445,3.446-5.343,8.055-5.343,12.973c0,0-0.161,15.908,13.874,15.908c3.881,0,8.949-2.104,11.406-4.315l2.166,3.679l8.109-2.362
		v-1.547C183.544,50.454,182.814,48.336,182.814,48.336z M175.958,44.811c0,0.789-0.067,1.359-0.435,2.465
		c-0.734,1.912-3.945,3.995-7.959,3.971c-5.774-0.035-9.793-5.409-9.793-14.072c0-4.1,0.961-7.743,3.209-10.165
		c2.093-2.172,4.775-2.629,6.66-2.629c4.901,0,6.908,2.458,7.674,3.931c0.644,1.145,0.644,2.539,0.644,3.561V44.811z"/>
	<path fill="#003056" d="M215.096,49.268c-0.233-0.291-0.412-1.139-0.533-2.416l-0.036-1.943V29.254c0-2.221-0.126-3.917-1.738-5.53
		c0,0-1.627-2.411-10.047-2.411c-3.597,0.141-8.157,1.715-10.005,4.601c-1.501,2.345-0.718,4.16,0.554,5.311
		c0.644,0.554,1.481,0.891,2.397,0.891c2.031,0,3.68-1.646,3.68-3.68c0-0.825-0.277-1.587-0.74-2.201
		c0.252-0.475,2.057-3.5,7.049-2.624c4.246,0.744,2.914,10.131,2.914,10.131c-1.824,0.561-15.243,4.838-17.263,10.289
		c-2.656,7.174,2.282,9.743,2.323,9.762c1.435,0.802,3.004,1.207,4.663,1.207c5.246,0,9.859-3.951,10.887-4.896
		c0.759,2.967,2.71,4.557,5.407,4.598v0.013l0.033-0.013c0.025,0,0.05,0.004,0.076,0.004v-0.032l4.555-1.737v-1.547
		C215.827,51.389,215.096,49.268,215.096,49.268z M208.516,46.563c0,1.778-3.754,3.188-5.975,3.737
		c-0.534,0.134-1.066,0.201-1.576,0.201c-2.545,0-4.466-1.74-4.466-4.047c0-4.354,5.128-6.492,8.871-8.051
		c1.254-0.525,2.364-0.984,3.146-1.463V46.563z"/>
	<path fill="#003056" d="M126.018,21.033c-3.426,0-7.388,3.748-9.443,6.7l-0.974-5.75h-7.909v2.193
		c0.03,0.003,3.114-0.315,3.114,2.943v23.487c0,1.411-4.18,2.08-4.207,2.087v1.626h4.032h0.042h6.604h0.038h4.035v-1.626
		c-0.028-0.007-4.245-0.493-4.245-2.074V32.574c0.045-0.34,0.32-1.484,0.713-2.207c1.151-2.164,4.262-4.159,5.293-3.44
		c0.65,1.209,1.925,2.036,3.395,2.036c2.125,0,3.848-1.724,3.848-3.85c0-0.436-0.076-0.853-0.21-1.244
		C129.755,22.389,128.38,21.033,126.018,21.033z"/>
	<path fill="#003056" d="M20.95,23.583c-8.69-5.518-10.77-7.926-11.472-12.03c-0.905-5.287,3.509-9.345,9.219-9.345
		c1.875,0,9.598,0.711,9.773,11.192h2.086V2.518C27.197,1.27,22.335,0,17.52,0C9.115,0,2.283,4.863,2.283,13.988
		c0,7.246,7.072,11.255,13.131,14.825c9.322,5.918,11.028,8.576,11.09,13.043c0,6.643-5.019,10.387-10.712,10.387
		c-2.538,0-4.818-0.775-6.561-2.234c-0.666-0.773,0.338-1.602,0.338-1.602c1.04-1.094,1.637-2.599,1.519-4.225
		c-0.222-3.055-2.883-5.352-5.94-5.129c-3.057,0.222-5.354,2.881-5.131,5.936c0.065,0.874,0.332,1.742,0.742,2.387
		C3.808,52.221,9.673,55,15.791,55c9.014,0,17.579-5.676,17.579-15.467C33.37,31.762,27.449,27.411,20.95,23.583z"/>
	<path fill="#003056" d="M254.322,50.617l-0.012-10.515v-4.79c0.006-3.928-0.46-7.64-3.787-10.745
		c-2.24-2.161-4.549-3.266-7.653-3.266c-3.011,0-7.509,1.695-10.37,5.006l-0.816-4.326h-8.562v2.193
		c0.03,0.004,3.095-0.359,3.095,3.049l0.005,23.381c0,1.411-4.194,2.08-4.224,2.087v1.626h4.033h0.042h6.604h0.04h4.035v-1.626
		c-0.03-0.007-4.211-0.493-4.211-2.074v-19.16c0.181-1.061,0.771-2.188,1.374-2.923c2.336-2.673,5.264-3.07,6.801-3.07
		c1.804,0,3.324,0.646,4.787,2.038c2.018,1.877,2.524,4.634,2.524,9.063v14.04c0,1.411-4.194,2.08-4.225,2.087v1.626h4.035h0.041
		h6.579h0.041h4.035v-1.626C258.505,52.685,254.322,52.198,254.322,50.617z"/>
	<path fill="#003056" d="M101.634,44.885l-0.146,0.252c-1.277,2.475-4.783,4.973-9.141,4.973c-5.944,0-10.157-5.451-10.157-12.68
		c0-1.541,0.062-2.667,0.181-3.353h20.297c0-12.47-10.189-12.782-11.958-12.782c-1.77,0-6.345,0.462-9.862,4.063
		c-4.192,4.189-4.955,9.409-4.955,12.145c0,5.473,0.922,8.287,3.493,12.035c3.25,4.744,8.93,5.453,12.025,5.453
		c6.23,0,10.466-4.5,12.197-8.351c0.078-0.175,0.137-0.333,0.183-0.485l0.062-0.217l-2.022-0.929L101.634,44.885z M90.359,24.071
		c4.831,0,6.425,5.077,6.425,6.433l-0.018,0.799H82.795C84.083,26.634,86.76,24.071,90.359,24.071z"/>
</g>
</svg>
